<svg xmlns="http://www.w3.org/2000/svg" width="153" height="85" xmlns:xlink="http://www.w3.org/1999/xlink" viewBox="0 0 502 278" enable-background="new 0 0 502 278"><path fill="#2B2E31" d="M158.27 39.98h26.37V170.9h-26.37z"/><defs><path id="a" d="M-172-159.28h841.9V436H-172z"/></defs><clipPath id="b"><use xlink:href="#a" overflow="visible"/></clipPath><path fill="#2B2E31" d="M398.12 66.34h39.1V39.96h-39.1V.86h-26.37V105.44c0 36.16 29.3 65.48 65.47 65.48v-26.36c-21.6 0-39.1-17.52-39.1-39.12v-39.1zM319.06 39.98l-27 93.02c-5.3 12.6-22.63 11.9-27.66 0l-26.94-93.07H211.1L238.3 133h-.06c3.98 11.74 12.78 37.82 40.1 37.82 27.3 0 35.3-24.38 40.1-37.82l27-93.02h-26.38z" clip-path="url(#b)"/><path fill="#3F8BCA" d="M105.82 53.16C121.66 41.2 131.9 22.23 131.9.86h-26.36c0 21.6-17.5 39.12-39.12 39.12-36.16 0-65.47 29.3-65.47 65.47s29.3 65.48 65.47 65.48c14.66 0 28.2-4.82 39.1-12.96v52.05c-.25 21.38-17.65 38.64-39.1 38.64v26.36c36 0 65.22-29.06 65.47-65V105.44c0-21.36-10.25-40.33-26.08-52.28m-.3 52.54c-.13 21.48-17.58 38.87-39.1 38.87-21.6 0-39.1-17.52-39.1-39.12 0-21.6 17.5-39.1 39.1-39.1s39.1 17.5 39.12 39.1v.25z" clip-path="url(#b)"/><path fill="#787879" d="M158.3 202.97h4.33v16.23h.15c.9-1.3 1.8-2.5 2.65-3.6l10.28-12.63h5.4l-12.18 14.28 13.13 19.36h-5.14l-11.07-16.5-3.2 3.7v12.8h-4.34V203zM185.7 201.18h4.4v35.44h-4.4zM202.36 205.67c.05 1.5-1.04 2.7-2.8 2.7-1.54 0-2.64-1.2-2.64-2.7 0-1.55 1.15-2.75 2.75-2.75 1.65 0 2.7 1.2 2.7 2.75m-4.9 6.8h4.4v24.14h-4.4v-24.14zM213.5 223.54h.1c.6-.85 1.44-1.9 2.14-2.75l7.1-8.34h5.28l-9.33 9.93 10.62 14.2h-5.34l-8.34-11.56-2.25 2.5v9.07h-4.35V201.2h4.34v22.36zM233.4 219c0-2.5-.04-4.55-.2-6.54h3.9l.25 4h.1c1.2-2.3 4-4.55 8-4.55 3.33 0 8.52 2 8.52 10.3v14.4h-4.4v-13.9c0-3.9-1.43-7.15-5.58-7.15-2.9 0-5.15 2.05-5.9 4.5-.2.54-.3 1.3-.3 2.04v14.5h-4.4V219zM266 205.67c.06 1.5-1.04 2.7-2.8 2.7-1.54 0-2.64-1.2-2.64-2.7 0-1.55 1.15-2.75 2.75-2.75 1.66 0 2.7 1.2 2.7 2.75m-4.9 6.8h4.4v24.14h-4.4v-24.14zM296.75 236.6l-.35-3.03h-.15c-1.34 1.9-3.94 3.6-7.38 3.6-4.9 0-7.4-3.45-7.4-6.94 0-5.84 5.2-9.04 14.53-9v-.5c0-1.98-.55-5.58-5.5-5.58-2.23 0-4.58.7-6.28 1.8l-1-2.9c2-1.3 4.9-2.14 7.94-2.14 7.4 0 9.2 5.05 9.2 9.9v9.02c0 2.1.1 4.15.4 5.8h-4zm-.65-12.3c-4.8-.1-10.23.73-10.23 5.43 0 2.84 1.9 4.2 4.15 4.2 3.14 0 5.14-2 5.83-4.05.15-.45.25-.95.25-1.4v-4.2zM318.02 220.34c0-3.1-.1-5.6-.2-7.88h3.94l.2 4.14h.1c1.8-2.94 4.64-4.7 8.58-4.7 5.84 0 10.24 4.95 10.24 12.3 0 8.67-5.3 12.96-10.98 12.96-3.2 0-6-1.4-7.44-3.8h-.1v13.14H318v-26.16zm4.34 6.44c0 .65.1 1.25.2 1.8.8 3.04 3.44 5.14 6.6 5.14 4.63 0 7.32-3.8 7.32-9.33 0-4.85-2.54-9-7.2-9-2.98 0-5.77 2.15-6.62 5.44-.15.55-.3 1.2-.3 1.8v4.14zM368.28 224.34c0 8.93-6.2 12.82-12.03 12.82-6.54 0-11.58-4.8-11.58-12.42 0-8.1 5.3-12.83 11.98-12.83 6.94 0 11.63 5.05 11.63 12.44m-19.17.25c0 5.28 3.06 9.27 7.35 9.27 4.2 0 7.34-3.94 7.34-9.4 0-4.08-2.06-9.27-7.25-9.27-5.2 0-7.44 4.8-7.44 9.4" clip-path="url(#b)"/><path fill="#787879" d="M373.82 219c0-2.5-.05-4.55-.2-6.54h3.84l.2 3.9h.15c1.36-2.3 3.6-4.45 7.6-4.45 3.3 0 5.8 2 6.84 4.85h.1c.75-1.35 1.7-2.4 2.7-3.14 1.44-1.1 3.04-1.7 5.33-1.7 3.2 0 7.94 2.1 7.94 10.5v14.2h-4.28v-13.66c0-4.64-1.7-7.44-5.24-7.44-2.5 0-4.44 1.85-5.2 4-.2.6-.34 1.4-.34 2.2v14.9h-4.3v-14.46c0-3.84-1.7-6.64-5.04-6.64-2.74 0-4.74 2.2-5.44 4.4-.25.64-.35 1.4-.35 2.14v14.57h-4.28V219zM428.83 236.6l-.35-3.03h-.15c-1.35 1.9-3.94 3.6-7.4 3.6-4.88 0-7.38-3.45-7.38-6.94 0-5.84 5.2-9.04 14.53-9v-.5c0-1.98-.55-5.58-5.5-5.58-2.24 0-4.58.7-6.28 1.8l-1-2.9c2-1.3 4.9-2.14 7.94-2.14 7.38 0 9.18 5.05 9.18 9.9v9.02c0 2.1.1 4.15.4 5.8h-4zm-.65-12.3c-4.8-.1-10.23.74-10.23 5.43 0 2.84 1.9 4.2 4.14 4.2 3.13 0 5.13-2 5.83-4.05.15-.45.25-.95.25-1.4v-4.2zm2.2-22.28l-6.1 7.14h-3.14l4.4-7.13h4.83zM439.5 201.18h4.4v15.07h.1c.7-1.25 1.8-2.35 3.15-3.1 1.3-.74 2.84-1.24 4.5-1.24 3.23 0 8.42 2 8.42 10.34v14.38h-4.4v-13.88c0-3.9-1.44-7.2-5.58-7.2-2.85 0-5.1 2-5.9 4.4-.25.6-.3 1.25-.3 2.1v14.58h-4.4v-35.44zM469.66 225.34c.1 5.93 3.9 8.38 8.28 8.38 3.15 0 5.04-.55 6.7-1.25l.74 3.15c-1.55.7-4.2 1.5-8.04 1.5-7.43 0-11.87-4.9-11.87-12.18s4.3-13.03 11.32-13.03c7.88 0 9.98 6.95 9.98 11.4 0 .9-.1 1.6-.15 2.04h-16.97zm12.88-3.15c.05-2.8-1.15-7.15-6.1-7.15-4.44 0-6.38 4.1-6.73 7.14h12.84zM486.33 243.6c2-.15 3.74-.7 4.8-1.84 1.2-1.4 1.64-3.3 1.64-9.1v-20.2h4.4v21.9c0 4.7-.76 7.74-2.9 9.94-1.95 1.95-5.15 2.75-7.5 2.75l-.44-3.45zm11.33-37.93c.05 1.45-1 2.7-2.75 2.7-1.63 0-2.68-1.25-2.68-2.7 0-1.55 1.15-2.75 2.8-2.75 1.6 0 2.64 1.2 2.64 2.75" clip-path="url(#b)"/></svg>