<svg data-name="Vrstva 1" xmlns="http://www.w3.org/2000/svg" width="125.278" height="34.33" viewBox="0 0 125.27757 34.3304"><title>logo</title><path d="M0 16.954v.011l.018.541a13.057 13.057 0 0 1 26.103.784 13.47 13.47 0 0 1-.962 4.999 12.918 12.918 0 0 0 4.907-10.133A13.132 13.132 0 0 0 16.726 0h-.034A16.523 16.523 0 0 0 4.804 5.041 16.957 16.957 0 0 0 0 16.954z" fill="#8cd2f4" fill-rule="evenodd"/><path d="M7.377 21.383a12.82 12.82 0 0 0 6.093 9.434 11.904 11.904 0 0 0 9.415 1.32 14.118 14.118 0 0 0 8.354-6.613 17.752 17.752 0 0 0 2.266-8.551v-.13a16.836 16.836 0 0 0-8.22-14.675l-.579-.317a13.483 13.483 0 0 1 5.978 11.256 13.655 13.655 0 0 1-1.751 6.703 13.036 13.036 0 0 1-7.955 6.248 12.621 12.621 0 0 1-9.866-1.318 12.941 12.941 0 0 1-3.735-3.357z" fill="#006bb6" fill-rule="evenodd"/><path d="M2.426 25.68C-.854 19.844-.098 11.346 6.848 7.228a12.17 12.17 0 0 1 11-.704 12.612 12.612 0 0 0-4.699 1.644 13.466 13.466 0 0 0-6.506 11.617 13.642 13.642 0 0 0 1.752 6.7 13.04 13.04 0 0 0 7.955 6.246 12.604 12.604 0 0 0 9.278-1.02l-.54.347a16.195 16.195 0 0 1-8.378 2.272 16.564 16.564 0 0 1-14.284-8.65z" fill="#2da343" fill-rule="evenodd"/><path d="M46.117 10.146a.792.792 0 0 0 .523-.158.509.509 0 0 0 .188-.41.499.499 0 0 0-.22-.445 1.333 1.333 0 0 0-.265-.146c-.105-.044-.222-.096-.354-.154a2.659 2.659 0 0 1-.332-.157 1.285 1.285 0 0 1-.28-.208.906.906 0 0 1-.194-.282.919.919 0 0 1-.071-.377.978.978 0 0 1 .073-.372.944.944 0 0 1 .221-.321 1.127 1.127 0 0 1 .364-.226 1.341 1.341 0 0 1 .495-.086 1.488 1.488 0 0 1 .863.246.106.106 0 0 1 .042.054.355.355 0 0 1 .006.072v.342a.056.056 0 0 1-.057.07.087.087 0 0 1-.065-.03 1.116 1.116 0 0 0-.824-.347.62.62 0 0 0-.463.163.54.54 0 0 0-.16.39.475.475 0 0 0 .062.248.604.604 0 0 0 .162.179 1.216 1.216 0 0 0 .235.136q.135.06.282.12a3.36 3.36 0 0 1 .429.198 1.178 1.178 0 0 1 .304.232.868.868 0 0 1 .182.287 1.006 1.006 0 0 1 .061.358.97.97 0 0 1-.091.43.91.91 0 0 1-.251.32 1.072 1.072 0 0 1-.375.197 1.552 1.552 0 0 1-.47.068 2.474 2.474 0 0 1-.316-.018 1.299 1.299 0 0 1-.258-.057 1.518 1.518 0 0 1-.225-.098 1.73 1.73 0 0 1-.222-.142.191.191 0 0 1-.036-.051.149.149 0 0 1-.012-.065v-.277c0-.053.017-.08.048-.08a.096.096 0 0 1 .065.035 1.718 1.718 0 0 0 .446.269 1.311 1.311 0 0 0 .49.093zm5.738-3.226a.033.033 0 0 1 .035.04v.34a.03.03 0 0 1-.035.036c-.091 0-.187-.001-.288-.005a10.228 10.228 0 0 0-.29-.005c-.222 0-.44-.004-.657-.015.01.188.015.374.015.558v2.554a.047.047 0 0 1-.015.03.046.046 0 0 1-.029.014h-.408a.04.04 0 0 1-.03-.015.05.05 0 0 1-.013-.03V7.859c0-.187.004-.369.014-.547a10.51 10.51 0 0 1-.593.015c-.114 0-.223.002-.326.005a9.422 9.422 0 0 1-.326.005c-.03 0-.042-.013-.035-.04l.045-.332a.04.04 0 0 1 .034-.045h2.902zm3.199 1.396a8.483 8.483 0 0 1-.29-.99 6.544 6.544 0 0 1-.117.443c-.049.164-.106.34-.172.527l-.07.197c-.026.066-.049.132-.072.195l-.064.174a4.475 4.475 0 0 1-.049.128c.092-.007.184-.011.28-.014l.275-.002h.27c.092 0 .178.005.259.01l-.05-.127a5.802 5.802 0 0 1-.068-.171l-.068-.189-.064-.18zm.363.995a5.736 5.736 0 0 1-.326.012 18.354 18.354 0 0 1-.654 0 5.71 5.71 0 0 1-.324-.012 17.212 17.212 0 0 1-.277.82l-.106.286a.063.063 0 0 1-.054.05h-.387c-.049 0-.065-.027-.045-.08l1.26-3.423a.131.131 0 0 1 .02-.03.043.043 0 0 1 .03-.015H55a.064.064 0 0 1 .059.045l1.26 3.423c.02.053.005.08-.045.08h-.42a.065.065 0 0 1-.06-.05 30.685 30.685 0 0 1-.213-.591 9.006 9.006 0 0 1-.164-.515zm-.706-2.668a.23.23 0 0 1-.037.028.083.083 0 0 1-.036.012h-.197a.027.027 0 0 1-.027-.015.028.028 0 0 1 .003-.03l.618-.703a.147.147 0 0 1 .031-.033.065.065 0 0 1 .041-.017h.374a.024.024 0 0 1 .025.02.034.034 0 0 1-.01.034zm5.944.277a.033.033 0 0 1 .035.04v.34a.03.03 0 0 1-.035.036 8.12 8.12 0 0 1-.29-.005 9.73 9.73 0 0 0-.289-.005c-.221 0-.441-.004-.657-.015.01.188.016.374.016.558v2.554a.048.048 0 0 1-.016.03.042.042 0 0 1-.03.014h-.406a.04.04 0 0 1-.032-.015.046.046 0 0 1-.013-.03V7.859c0-.187.006-.369.016-.547-.197.01-.395.015-.595.015-.114 0-.222.002-.325.005a9.377 9.377 0 0 1-.327.005c-.029 0-.04-.013-.033-.04l.043-.332a.04.04 0 0 1 .036-.045h2.902zm2.591 1.06a3.651 3.651 0 0 1-.34-.674c.01.127.018.253.023.378q.008.185.008.396v2.342a.05.05 0 0 1-.013.03.036.036 0 0 1-.027.015h-.367a.039.039 0 0 1-.032-.015.046.046 0 0 1-.013-.03V6.97a.042.042 0 0 1 .045-.05h.553a.071.071 0 0 1 .045.015.116.116 0 0 1 .03.035l1.411 2.24a3.942 3.942 0 0 1 .229.408c.059.127.113.255.16.382a7.118 7.118 0 0 1-.033-.468q-.008-.205-.008-.452V6.97a.042.042 0 0 1 .044-.05h.364a.04.04 0 0 1 .03.015.052.052 0 0 1 .014.035v3.452a.048.048 0 0 1-.015.03.042.042 0 0 1-.03.015h-.48a.063.063 0 0 1-.059-.04zm4.88 2.442a.045.045 0 0 1-.016.03.042.042 0 0 1-.028.015h-.407a.043.043 0 0 1-.033-.015.053.053 0 0 1-.012-.03V6.97a.041.041 0 0 1 .045-.05h.407a.041.041 0 0 1 .029.015.049.049 0 0 1 .015.035v3.453zm-.31-3.779a.204.204 0 0 1-.036.028.087.087 0 0 1-.037.012h-.196a.028.028 0 0 1-.028-.015.03.03 0 0 1 .003-.03l.619-.703a.137.137 0 0 1 .032-.032.062.062 0 0 1 .04-.019h.374a.023.023 0 0 1 .024.02.036.036 0 0 1-.01.035zm5.662 3.779a.049.049 0 0 1-.014.03.045.045 0 0 1-.03.015h-.407a.043.043 0 0 1-.032-.015.053.053 0 0 1-.012-.03V6.97a.042.042 0 0 1 .044-.05h2.064a.045.045 0 0 1 .035.045l.035.312a.034.034 0 0 1-.035.04c-.074 0-.159 0-.252-.002a10.675 10.675 0 0 0-.285-.003c-.096 0-.191 0-.284-.002l-.247-.002c-.102 0-.205 0-.307-.003a4.062 4.062 0 0 1-.287-.013 13.766 13.766 0 0 1 0 1.186 4.82 4.82 0 0 1 .26-.015c.098-.003.201-.005.313-.005a26.043 26.043 0 0 0 .57-.005.037.037 0 0 1 .034.046v.306a.034.034 0 0 1-.035.04 6.49 6.49 0 0 1-.203-.005 10.788 10.788 0 0 0-.36-.006h-.301a8.213 8.213 0 0 1-.278-.014c.01.218.014.456.014.714v.89zm4.978-.297a1.172 1.172 0 0 0 .518-.108 1.036 1.036 0 0 0 .376-.304 1.339 1.339 0 0 0 .228-.47 2.261 2.261 0 0 0 .076-.604 1.964 1.964 0 0 0-.09-.63 1.26 1.26 0 0 0-.251-.442 1.022 1.022 0 0 0-.377-.264 1.266 1.266 0 0 0-.474-.087 1.294 1.294 0 0 0-.468.085 1.02 1.02 0 0 0-.38.261 1.266 1.266 0 0 0-.256.446 1.942 1.942 0 0 0-.093.63 2.152 2.152 0 0 0 .08.598 1.404 1.404 0 0 0 .23.47 1.073 1.073 0 0 0 .373.31 1.12 1.12 0 0 0 .508.11zm0-3.321a1.81 1.81 0 0 1 .66.123 1.66 1.66 0 0 1 .56.36 1.747 1.747 0 0 1 .387.575 1.98 1.98 0 0 1 .144.777 2.206 2.206 0 0 1-.13.775 1.773 1.773 0 0 1-.362.598 1.63 1.63 0 0 1-.555.385 1.802 1.802 0 0 1-.704.136 1.706 1.706 0 0 1-.673-.134 1.643 1.643 0 0 1-.554-.38 1.77 1.77 0 0 1-.375-.594 2.13 2.13 0 0 1-.138-.786 1.974 1.974 0 0 1 .142-.768 1.758 1.758 0 0 1 .382-.574 1.702 1.702 0 0 1 .555-.365 1.723 1.723 0 0 1 .661-.128zm4.608 1.176a3.616 3.616 0 0 1-.34-.674c.01.127.018.253.022.378.006.123.008.256.008.396v2.342a.052.052 0 0 1-.012.03.038.038 0 0 1-.028.015h-.367a.04.04 0 0 1-.032-.015.048.048 0 0 1-.012-.03V6.97a.042.042 0 0 1 .044-.05h.553a.066.066 0 0 1 .045.015.109.109 0 0 1 .03.035l1.412 2.24a3.85 3.85 0 0 1 .228.408c.06.127.114.255.16.382a7.652 7.652 0 0 1-.033-.468q-.008-.205-.007-.452V6.97a.042.042 0 0 1 .044-.05h.363a.043.043 0 0 1 .03.015.049.049 0 0 1 .014.035v3.452a.051.051 0 0 1-.044.045h-.48a.062.062 0 0 1-.059-.04zm4.428 2.487a.045.045 0 0 1-.032-.014.058.058 0 0 1-.012-.03V6.97a.042.042 0 0 1 .044-.05h1.083a2.206 2.206 0 0 1 .75.12 1.57 1.57 0 0 1 .573.352 1.552 1.552 0 0 1 .365.565 2.123 2.123 0 0 1 .128.762 2.056 2.056 0 0 1-.13.758 1.501 1.501 0 0 1-.366.548 1.534 1.534 0 0 1-.562.332 2.222 2.222 0 0 1-.717.11h-1.124zm1.114-.397a1.589 1.589 0 0 0 .483-.073 1.011 1.011 0 0 0 .398-.236 1.183 1.183 0 0 0 .269-.425 1.787 1.787 0 0 0 .1-.638 1.967 1.967 0 0 0-.074-.545 1.158 1.158 0 0 0-.233-.44 1.093 1.093 0 0 0-.41-.291 1.55 1.55 0 0 0-.602-.106c-.09 0-.194 0-.306-.002a5.557 5.557 0 0 1-.301-.013c.008.2.013.408.013.618v1.383a20.714 20.714 0 0 1-.013.783c.125-.007.241-.01.342-.012.102-.001.213-.003.334-.003zM46.24 18.317l-.188.27-.143.195c-.04.056-.08.105-.115.149a6.72 6.72 0 0 0-.102.125 23.672 23.672 0 0 1 1.053-.02c.157 0 .326-.002.508-.005s.35-.005.508-.005c.029 0 .042.016.038.05l-.038.307a.045.045 0 0 1-.044.04h-2.653a.052.052 0 0 1-.04-.03.127.127 0 0 1-.02-.066.092.092 0 0 1 .02-.055l1.623-2.336.177-.249c.049-.068.093-.129.132-.18a2.85 2.85 0 0 1 .108-.134l.098-.11c-.166.007-.334.01-.503.012l-.488.002c-.156 0-.32.002-.487.005-.169.004-.332.006-.489.006-.032 0-.045-.014-.038-.041l.038-.327a.041.041 0 0 1 .04-.045h2.54a.058.058 0 0 1 .047.023.087.087 0 0 1 .016.053.131.131 0 0 1-.014.06l-1.584 2.307zm.725-3.431a.126.126 0 0 1 .073-.046h.192a.023.023 0 0 1 .025.015.03.03 0 0 1-.01.03l-.593.709a.122.122 0 0 1-.079.046h-.205a.098.098 0 0 1-.079-.046l-.583-.708a.03.03 0 0 1-.003-.03.029.029 0 0 1 .027-.016h.206a.125.125 0 0 1 .074.046l.48.462zm3.41 4.492a.05.05 0 0 1-.044.045h-.406a.044.044 0 0 1-.033-.014.052.052 0 0 1-.012-.031v-3.453a.042.042 0 0 1 .045-.05h.406a.043.043 0 0 1 .03.016.048.048 0 0 1 .014.034v3.453zm3.14.045a.054.054 0 0 1-.06-.045l-1.259-3.422c-.02-.053-.004-.08.045-.08h.421a.065.065 0 0 1 .035.014.063.063 0 0 1 .024.035l.78 2.211c.051.152.1.301.144.447.045.147.08.293.11.438a7.621 7.621 0 0 1 .25-.885l.776-2.21a.064.064 0 0 1 .058-.05h.387c.05 0 .065.027.045.08l-1.26 3.422a.085.085 0 0 1-.02.03.043.043 0 0 1-.029.015h-.447zm5.155-.342a1.163 1.163 0 0 0 .516-.108 1.031 1.031 0 0 0 .377-.304 1.329 1.329 0 0 0 .227-.47 2.23 2.23 0 0 0 .076-.604 1.965 1.965 0 0 0-.09-.63 1.255 1.255 0 0 0-.25-.442 1.026 1.026 0 0 0-.378-.264 1.265 1.265 0 0 0-.473-.087 1.295 1.295 0 0 0-.468.085 1.027 1.027 0 0 0-.38.261 1.257 1.257 0 0 0-.255.446 1.93 1.93 0 0 0-.094.63 2.151 2.151 0 0 0 .078.598 1.432 1.432 0 0 0 .231.47 1.067 1.067 0 0 0 .373.31 1.123 1.123 0 0 0 .51.11zm0-3.32a1.81 1.81 0 0 1 .66.122 1.668 1.668 0 0 1 .559.36 1.73 1.73 0 0 1 .387.575 1.96 1.96 0 0 1 .144.777 2.216 2.216 0 0 1-.13.775 1.775 1.775 0 0 1-.362.598 1.622 1.622 0 0 1-.554.385 1.813 1.813 0 0 1-.704.135 1.711 1.711 0 0 1-.675-.133 1.644 1.644 0 0 1-.553-.38 1.79 1.79 0 0 1-.376-.594 2.148 2.148 0 0 1-.137-.786 1.966 1.966 0 0 1 .143-.768 1.735 1.735 0 0 1 .382-.574 1.71 1.71 0 0 1 .554-.365 1.743 1.743 0 0 1 .662-.128zm6.361.114a.033.033 0 0 1 .035.04v.342a.03.03 0 0 1-.035.035c-.091 0-.188-.001-.289-.005a10.54 10.54 0 0 0-.29-.005c-.221 0-.44-.005-.657-.015.01.188.016.374.016.558v2.553a.047.047 0 0 1-.016.03.042.042 0 0 1-.03.015h-.406a.04.04 0 0 1-.03-.015.05.05 0 0 1-.014-.03v-2.564c0-.187.006-.369.015-.547-.195.01-.394.015-.593.015-.115 0-.223.002-.326.005a9.11 9.11 0 0 1-.326.005c-.03 0-.04-.013-.035-.04l.045-.332a.04.04 0 0 1 .034-.045h2.903zm2.59 1.061a3.682 3.682 0 0 1-.338-.674 10.268 10.268 0 0 1 .03.774v2.342a.048.048 0 0 1-.013.03.033.033 0 0 1-.027.015h-.367a.038.038 0 0 1-.032-.015.05.05 0 0 1-.012-.03v-3.453a.041.041 0 0 1 .044-.05h.554a.072.072 0 0 1 .044.015.099.099 0 0 1 .03.035l1.412 2.242a3.757 3.757 0 0 1 .228.407c.06.127.113.255.16.382a7.219 7.219 0 0 1-.032-.468 10.657 10.657 0 0 1-.008-.452v-2.11a.042.042 0 0 1 .044-.05h.363a.04.04 0 0 1 .029.014.051.051 0 0 1 .015.035v3.453a.047.047 0 0 1-.015.03.04.04 0 0 1-.029.015h-.48a.064.064 0 0 1-.06-.04zm4.88 2.442a.046.046 0 0 1-.014.03.045.045 0 0 1-.029.015h-.407a.043.043 0 0 1-.032-.014.055.055 0 0 1-.012-.031v-3.453a.042.042 0 0 1 .044-.05h.407a.042.042 0 0 1 .03.016.048.048 0 0 1 .013.034v3.453zm-.308-3.779a.186.186 0 0 1-.036.028.084.084 0 0 1-.038.013h-.196a.027.027 0 0 1-.027-.016.032.032 0 0 1 .002-.03l.619-.703a.14.14 0 0 1 .032-.033.065.065 0 0 1 .041-.018h.373a.023.023 0 0 1 .024.02.034.034 0 0 1-.01.035zm4.44 1.724c.176 0 .342.005.494.015q-.014-.306-.014-.634v-.779a.042.042 0 0 1 .044-.05h.412a.038.038 0 0 1 .029.016.048.048 0 0 1 .016.034v3.453a.047.047 0 0 1-.016.03.04.04 0 0 1-.03.015h-.41a.04.04 0 0 1-.033-.015.054.054 0 0 1-.012-.03v-.94q0-.362.015-.708a3.633 3.633 0 0 1-.253.009h-1.378c-.07 0-.153-.002-.253-.01q.015.347.014.709v.94a.045.045 0 0 1-.013.03.043.043 0 0 1-.03.015h-.406a.04.04 0 0 1-.033-.015.054.054 0 0 1-.012-.03v-3.453a.041.041 0 0 1 .045-.05h.407a.042.042 0 0 1 .029.016.047.047 0 0 1 .013.034v.78q0 .327-.013.633.225-.015.495-.015h.893zm4.83 1.758a1.167 1.167 0 0 0 .518-.108 1.037 1.037 0 0 0 .376-.304 1.344 1.344 0 0 0 .228-.47 2.273 2.273 0 0 0 .076-.604 1.956 1.956 0 0 0-.091-.63 1.262 1.262 0 0 0-.25-.442 1.02 1.02 0 0 0-.378-.264 1.265 1.265 0 0 0-.473-.087 1.294 1.294 0 0 0-.468.085 1.019 1.019 0 0 0-.38.261 1.263 1.263 0 0 0-.255.446 1.929 1.929 0 0 0-.094.63 2.154 2.154 0 0 0 .079.598 1.404 1.404 0 0 0 .23.47 1.064 1.064 0 0 0 .374.31 1.118 1.118 0 0 0 .508.11zm0-3.32a1.81 1.81 0 0 1 .66.122 1.665 1.665 0 0 1 .56.36 1.736 1.736 0 0 1 .387.575 1.958 1.958 0 0 1 .144.777 2.205 2.205 0 0 1-.13.775 1.766 1.766 0 0 1-.362.598 1.62 1.62 0 0 1-.555.385 1.805 1.805 0 0 1-.704.135 1.706 1.706 0 0 1-.673-.133 1.639 1.639 0 0 1-.554-.38 1.763 1.763 0 0 1-.375-.594 2.125 2.125 0 0 1-.138-.786 1.973 1.973 0 0 1 .142-.768 1.758 1.758 0 0 1 .382-.574 1.711 1.711 0 0 1 .555-.365 1.734 1.734 0 0 1 .661-.128zm7.397 2.305c-.195 0-.353-.005-.474-.015.006.1.01.21.013.326l.002.353v.648a.048.048 0 0 1-.015.03.044.044 0 0 1-.03.015h-.407a.042.042 0 0 1-.032-.015.049.049 0 0 1-.012-.03v-3.437a.073.073 0 0 1 .015-.045.038.038 0 0 1 .03-.02h.966a1.52 1.52 0 0 1 .552.09 1.074 1.074 0 0 1 .382.241.968.968 0 0 1 .223.352 1.224 1.224 0 0 1 .073.422 1.154 1.154 0 0 1-.08.445.909.909 0 0 1-.244.341 1.11 1.11 0 0 1-.401.221 1.818 1.818 0 0 1-.56.078zm-.033-.377a.881.881 0 0 0 .596-.173.68.68 0 0 0 .199-.54 1.006 1.006 0 0 0-.04-.284.585.585 0 0 0-.124-.228.606.606 0 0 0-.223-.152.909.909 0 0 0-.334-.056l-.257-.001a5.372 5.372 0 0 1-.258-.013c.004.047.006.101.008.16l.005.189.002.194v.354l-.002.202-.005.195a3.279 3.279 0 0 1-.008.164q.107-.01.226-.01h.216zm4.071.277c-.025 0-.068 0-.125-.003a3.163 3.163 0 0 1-.154-.007 13.069 13.069 0 0 1 .02.678v.744a.05.05 0 0 1-.015.03.043.043 0 0 1-.03.014h-.407a.04.04 0 0 1-.032-.014.051.051 0 0 1-.012-.03V15.94a.078.078 0 0 1 .015-.046.042.042 0 0 1 .029-.02h1a1.567 1.567 0 0 1 .52.078 1.01 1.01 0 0 1 .363.212.817.817 0 0 1 .211.313 1.093 1.093 0 0 1 .069.388.86.86 0 0 1-.083.378.986.986 0 0 1-.221.302 1.137 1.137 0 0 1-.681.3.605.605 0 0 1 .205.095 2.328 2.328 0 0 1 .238.185c.083.074.169.158.258.252.088.094.176.192.264.297.138.157.254.29.35.396a.953.953 0 0 0 .225.201.068.068 0 0 1 .028.071.064.064 0 0 1-.063.08h-.451a.152.152 0 0 1-.093-.033.698.698 0 0 1-.128-.148c-.108-.13-.221-.27-.339-.42q-.176-.223-.345-.414a2.573 2.573 0 0 0-.326-.316.472.472 0 0 0-.29-.126zm.23-1.71c-.17 0-.338-.004-.504-.013l.008.17c0 .067.002.136.004.206l.003.208v.18c0 .207-.006.411-.015.613a4.794 4.794 0 0 1 .363-.016.902.902 0 0 0 .642-.194.702.702 0 0 0 .202-.53.61.61 0 0 0-.172-.455.737.737 0 0 0-.53-.168zm5.14 2.825a1.17 1.17 0 0 0 .518-.108 1.047 1.047 0 0 0 .376-.304 1.358 1.358 0 0 0 .228-.47 2.273 2.273 0 0 0 .076-.604 1.964 1.964 0 0 0-.09-.63 1.267 1.267 0 0 0-.251-.442 1.02 1.02 0 0 0-.377-.264 1.267 1.267 0 0 0-.474-.087 1.299 1.299 0 0 0-.469.085 1.012 1.012 0 0 0-.38.261 1.264 1.264 0 0 0-.255.446 1.938 1.938 0 0 0-.093.63 2.154 2.154 0 0 0 .079.598 1.404 1.404 0 0 0 .23.47 1.06 1.06 0 0 0 .374.31 1.119 1.119 0 0 0 .508.11zm0-3.32a1.81 1.81 0 0 1 .66.122 1.665 1.665 0 0 1 .56.36 1.753 1.753 0 0 1 .387.575 1.98 1.98 0 0 1 .145.777 2.21 2.21 0 0 1-.13.775 1.77 1.77 0 0 1-.363.598 1.62 1.62 0 0 1-.554.385 1.805 1.805 0 0 1-.705.135 1.704 1.704 0 0 1-.673-.133 1.651 1.651 0 0 1-.554-.38 1.775 1.775 0 0 1-.375-.594 2.125 2.125 0 0 1-.137-.786 1.973 1.973 0 0 1 .141-.768 1.764 1.764 0 0 1 .383-.574 1.714 1.714 0 0 1 .555-.365 1.733 1.733 0 0 1 .66-.128zm4.725 3.341a.794.794 0 0 0 .523-.159.51.51 0 0 0 .188-.409.501.501 0 0 0-.22-.445 1.354 1.354 0 0 0-.266-.146 48.07 48.07 0 0 1-.353-.154 2.877 2.877 0 0 1-.334-.157 1.315 1.315 0 0 1-.279-.209.873.873 0 0 1-.193-.281.921.921 0 0 1-.072-.377.977.977 0 0 1 .073-.372.943.943 0 0 1 .221-.321 1.112 1.112 0 0 1 .364-.226 1.34 1.34 0 0 1 .494-.086 1.486 1.486 0 0 1 .863.246.096.096 0 0 1 .042.054.316.316 0 0 1 .008.072v.342a.057.057 0 0 1-.058.07.09.09 0 0 1-.065-.03 1.116 1.116 0 0 0-.824-.347.622.622 0 0 0-.463.163.54.54 0 0 0-.159.39.485.485 0 0 0 .06.248.624.624 0 0 0 .163.18 1.24 1.24 0 0 0 .235.135c.09.04.184.08.283.12a3.33 3.33 0 0 1 .428.198 1.244 1.244 0 0 1 .305.232.872.872 0 0 1 .18.287 1.066 1.066 0 0 1-.03.788.928.928 0 0 1-.249.32 1.093 1.093 0 0 1-.375.197 1.57 1.57 0 0 1-.47.068 2.518 2.518 0 0 1-.317-.018 1.309 1.309 0 0 1-.258-.057 1.545 1.545 0 0 1-.225-.098 1.784 1.784 0 0 1-.22-.143.207.207 0 0 1-.038-.05.15.15 0 0 1-.011-.066v-.276c0-.054.016-.08.048-.08a.093.093 0 0 1 .064.035 1.737 1.737 0 0 0 .447.269 1.31 1.31 0 0 0 .49.093zm5.739-3.227a.033.033 0 0 1 .034.04v.342a.03.03 0 0 1-.034.035 7.26 7.26 0 0 1-.29-.005 10.637 10.637 0 0 0-.29-.005c-.22 0-.44-.005-.657-.015.01.188.016.374.016.558v2.553a.047.047 0 0 1-.016.03.041.041 0 0 1-.03.015h-.406a.044.044 0 0 1-.032-.015.051.051 0 0 1-.012-.03v-2.564c0-.187.005-.369.015-.547q-.294.016-.595.015c-.113 0-.222.002-.326.005-.101.004-.21.005-.325.005-.03 0-.042-.013-.034-.04l.044-.332a.04.04 0 0 1 .034-.045h2.904zm2.585 2.091c-.027 0-.068 0-.125-.003a3.105 3.105 0 0 1-.154-.007 11.87 11.87 0 0 1 .018.678v.744a.05.05 0 0 1-.014.03.043.043 0 0 1-.03.014h-.406a.039.039 0 0 1-.033-.014.048.048 0 0 1-.013-.03V15.94a.077.077 0 0 1 .016-.046.041.041 0 0 1 .03-.02h1a1.571 1.571 0 0 1 .52.078 1.018 1.018 0 0 1 .363.212.814.814 0 0 1 .21.313 1.063 1.063 0 0 1 .07.388.857.857 0 0 1-.085.378.99.99 0 0 1-.22.302 1.137 1.137 0 0 1-.314.206 1.112 1.112 0 0 1-.367.093.607.607 0 0 1 .205.096 2.406 2.406 0 0 1 .238.185c.084.074.169.158.258.252.088.094.176.192.264.297.137.157.254.29.351.396a.955.955 0 0 0 .223.201.067.067 0 0 1 .029.071.064.064 0 0 1-.063.08h-.451a.155.155 0 0 1-.094-.033.716.716 0 0 1-.127-.148c-.108-.13-.221-.27-.339-.42q-.176-.223-.345-.414a2.52 2.52 0 0 0-.326-.316.472.472 0 0 0-.289-.126zm.23-1.71c-.17 0-.338-.004-.505-.013l.008.17c0 .067.003.136.004.206l.002.208v.18c0 .207-.005.411-.014.613a4.67 4.67 0 0 1 .363-.016.897.897 0 0 0 .641-.194.7.7 0 0 0 .203-.53.61.61 0 0 0-.172-.455.734.734 0 0 0-.53-.168zm.475-1.37a.124.124 0 0 1 .073-.046h.192a.023.023 0 0 1 .025.015.03.03 0 0 1-.01.031l-.594.708a.12.12 0 0 1-.078.046h-.205a.1.1 0 0 1-.079-.046l-.584-.708a.03.03 0 0 1-.001-.03.026.026 0 0 1 .026-.016h.207a.121.121 0 0 1 .073.046l.48.462zm4.352 4.15c.156 0 .318-.002.482-.005.166-.003.322-.006.47-.006.022 0 .033.016.033.047l-.04.31a.04.04 0 0 1-.033.041h-2.133a.04.04 0 0 1-.033-.015.05.05 0 0 1-.013-.03v-3.453a.042.042 0 0 1 .046-.05h2.059a.046.046 0 0 1 .04.045l.034.312a.034.034 0 0 1-.034.04l-.252-.001a10.397 10.397 0 0 0-.288-.004c-.098 0-.193 0-.284-.003l-.245-.002c-.128 0-.238-.001-.33-.003a3.713 3.713 0 0 1-.264-.012 13.737 13.737 0 0 1 .015.567c0 .193-.006.384-.015.58.076-.008.157-.013.248-.017.09-.003.197-.004.321-.004s.232-.001.323-.003l.226-.002c.022 0 .034.015.034.045v.302a.033.033 0 0 1-.034.04l-.233-.003a13.737 13.737 0 0 0-.326-.003c-.105 0-.204-.002-.297-.007a9.23 9.23 0 0 1-.262-.018 15.833 15.833 0 0 1 0 1.327c.06-.003.115-.006.169-.007a7.058 7.058 0 0 1 .373-.008h.242zm2.924.387a.04.04 0 0 1-.032-.015.05.05 0 0 1-.013-.03v-3.453a.043.043 0 0 1 .045-.05h1.083a2.196 2.196 0 0 1 .748.122 1.514 1.514 0 0 1 .94.916 2.166 2.166 0 0 1 .127.762 2.052 2.052 0 0 1-.13.758 1.495 1.495 0 0 1-.366.548 1.53 1.53 0 0 1-.561.332 2.232 2.232 0 0 1-.718.11h-1.123zm1.112-.397a1.58 1.58 0 0 0 .483-.073 1.003 1.003 0 0 0 .398-.236 1.15 1.15 0 0 0 .27-.425 1.758 1.758 0 0 0 .1-.638 1.92 1.92 0 0 0-.074-.545 1.164 1.164 0 0 0-.233-.44 1.098 1.098 0 0 0-.41-.291 1.56 1.56 0 0 0-.602-.106c-.09 0-.193 0-.306-.002a5.652 5.652 0 0 1-.302-.013c.009.201.015.408.015.618v1.382c0 .155 0 .294-.003.42a7.965 7.965 0 0 1-.012.364c.128-.007.241-.01.343-.012.102-.001.212-.003.333-.003zm4.38.352a.045.045 0 0 1-.014.03.045.045 0 0 1-.029.015h-.407a.043.043 0 0 1-.032-.014.055.055 0 0 1-.012-.031v-3.453a.042.042 0 0 1 .044-.05h.407a.041.041 0 0 1 .029.016.047.047 0 0 1 .014.034v3.453zm-.308-3.779a.198.198 0 0 1-.037.028.082.082 0 0 1-.037.013h-.196a.027.027 0 0 1-.027-.016.03.03 0 0 1 .003-.03l.618-.703a.154.154 0 0 1 .032-.033.067.067 0 0 1 .041-.018h.373a.023.023 0 0 1 .024.02.034.034 0 0 1-.01.035zM46.77 28.444a1.71 1.71 0 0 1-.685-.133 1.548 1.548 0 0 1-.535-.374 1.742 1.742 0 0 1-.347-.578 2.1 2.1 0 0 1-.125-.739 2.164 2.164 0 0 1 .125-.74 1.805 1.805 0 0 1 .36-.604 1.692 1.692 0 0 1 .575-.41 1.832 1.832 0 0 1 .76-.15 1.95 1.95 0 0 1 .548.073 1.378 1.378 0 0 1 .423.198.113.113 0 0 1 .043.056.238.238 0 0 1 .01.076v.336a.065.065 0 0 1-.063.08.124.124 0 0 1-.064-.03 1.246 1.246 0 0 0-.405-.26 1.322 1.322 0 0 0-.492-.092 1.356 1.356 0 0 0-.555.106 1.092 1.092 0 0 0-.404.296 1.251 1.251 0 0 0-.247.458 1.912 1.912 0 0 0-.085.588 1.772 1.772 0 0 0 .094.597 1.298 1.298 0 0 0 .26.45 1.167 1.167 0 0 0 .397.284 1.264 1.264 0 0 0 .505.1 1.626 1.626 0 0 0 .508-.075 1.284 1.284 0 0 0 .433-.251.126.126 0 0 1 .06-.025.057.057 0 0 1 .057.07v.266a.133.133 0 0 1-.012.066.205.205 0 0 1-.04.044 1.527 1.527 0 0 1-.472.24 2.155 2.155 0 0 1-.628.077zm.578-4.602a.119.119 0 0 1 .073-.046h.192a.023.023 0 0 1 .025.016.03.03 0 0 1-.01.03l-.593.708a.123.123 0 0 1-.08.046h-.205a.098.098 0 0 1-.078-.046l-.584-.708a.032.032 0 0 1-.003-.03.028.028 0 0 1 .028-.016h.206a.123.123 0 0 1 .073.046l.481.462zm3.787 4.15c.157 0 .318-.002.484-.005.165-.003.32-.006.467-.006.024 0 .035.016.035.047l-.039.31a.04.04 0 0 1-.035.041h-2.132a.04.04 0 0 1-.032-.015.051.051 0 0 1-.014-.03v-3.453a.042.042 0 0 1 .046-.05h2.059a.045.045 0 0 1 .04.046l.033.311a.033.033 0 0 1-.034.04c-.075 0-.159 0-.253-.002a13.323 13.323 0 0 0-.286-.003c-.098 0-.193 0-.285-.003l-.245-.002-.328-.002a4.113 4.113 0 0 1-.265-.013 11.498 11.498 0 0 1 0 1.146 7.989 7.989 0 0 1 .569-.02 20.946 20.946 0 0 0 .549-.005c.022 0 .034.015.034.046v.3a.033.033 0 0 1-.034.04c-.062 0-.14 0-.233-.002a14.299 14.299 0 0 0-.326-.003 5.45 5.45 0 0 1-.297-.007 9.32 9.32 0 0 1-.262-.018 15.101 15.101 0 0 1 0 1.327c.059-.003.115-.006.17-.007a6.942 6.942 0 0 1 .372-.008h.242zm3.758.066a.791.791 0 0 0 .522-.159.508.508 0 0 0 .19-.409.55.55 0 0 0-.058-.262.543.543 0 0 0-.164-.183 1.34 1.34 0 0 0-.265-.146 24.203 24.203 0 0 1-.353-.154 2.806 2.806 0 0 1-.333-.157 1.322 1.322 0 0 1-.28-.209.916.916 0 0 1-.193-.281.93.93 0 0 1-.072-.377.978.978 0 0 1 .074-.372.944.944 0 0 1 .22-.321 1.111 1.111 0 0 1 .364-.226 1.342 1.342 0 0 1 .495-.086 1.487 1.487 0 0 1 .863.246.1.1 0 0 1 .042.054.346.346 0 0 1 .006.072v.342a.056.056 0 0 1-.057.07.089.089 0 0 1-.065-.03 1.115 1.115 0 0 0-.824-.347.62.62 0 0 0-.463.163.542.542 0 0 0-.16.39.472.472 0 0 0 .063.248.612.612 0 0 0 .161.18 1.21 1.21 0 0 0 .235.135q.135.06.282.12a3.396 3.396 0 0 1 .43.198 1.205 1.205 0 0 1 .303.232.882.882 0 0 1 .183.286.998.998 0 0 1 .06.36.973.973 0 0 1-.09.429.929.929 0 0 1-.251.32 1.09 1.09 0 0 1-.375.197 1.55 1.55 0 0 1-.47.068 2.527 2.527 0 0 1-.317-.018 1.3 1.3 0 0 1-.257-.057 1.63 1.63 0 0 1-.226-.098 1.776 1.776 0 0 1-.22-.143.205.205 0 0 1-.038-.05.15.15 0 0 1-.012-.066v-.276c0-.054.017-.08.05-.08a.096.096 0 0 1 .064.035 1.76 1.76 0 0 0 .445.269 1.313 1.313 0 0 0 .49.093zm3.717.276a.05.05 0 0 1-.014.03.045.045 0 0 1-.03.015h-.406a.044.044 0 0 1-.032-.014.059.059 0 0 1-.012-.031v-3.453a.042.042 0 0 1 .044-.05h.407a.042.042 0 0 1 .03.016.05.05 0 0 1 .014.034v.825a13.431 13.431 0 0 1-.015.623h.078a.597.597 0 0 0 .262-.191q.195-.191.474-.508c.105-.117.216-.243.334-.377.117-.134.237-.26.358-.381a.112.112 0 0 1 .083-.04h.49a.04.04 0 0 1 .04.05.057.057 0 0 1-.03.055.966.966 0 0 0-.146.113c-.064.055-.135.124-.217.203a15.04 15.04 0 0 0-.27.275c-.098.101-.2.21-.308.324-.135.137-.26.262-.376.374a1.771 1.771 0 0 1-.257.219.382.382 0 0 1 .11.078c.047.041.103.094.167.158s.135.137.213.221l.25.265c.109.118.217.235.33.353a11.366 11.366 0 0 0 .587.578.975.975 0 0 0 .177.135.074.074 0 0 1 .04.071c0 .05-.014.075-.04.075h-.52a.134.134 0 0 1-.052-.013.286.286 0 0 1-.046-.027 9.655 9.655 0 0 1-.433-.443c-.15-.16-.29-.32-.425-.481-.09-.108-.178-.207-.26-.3a5.265 5.265 0 0 0-.225-.238 1.57 1.57 0 0 0-.182-.156.248.248 0 0 0-.122-.055h-.089a10.785 10.785 0 0 1 .02.694v.974zm5.484-.342c.157 0 .319-.002.483-.005.166-.003.322-.006.47-.006.022 0 .033.016.033.047l-.04.31a.04.04 0 0 1-.033.041h-2.133a.04.04 0 0 1-.032-.015.054.054 0 0 1-.012-.03v-3.453a.041.041 0 0 1 .044-.05h2.059a.046.046 0 0 1 .04.046l.034.311a.034.034 0 0 1-.034.04c-.076 0-.16 0-.252-.002a13.539 13.539 0 0 0-.288-.003c-.098 0-.193 0-.284-.003l-.245-.002-.33-.002a4.088 4.088 0 0 1-.264-.013 13.62 13.62 0 0 1 .015.567c0 .193-.006.385-.015.58.075-.008.157-.013.248-.016a8.02 8.02 0 0 1 .32-.005 20.717 20.717 0 0 0 .55-.005c.022 0 .034.015.034.046v.3a.033.033 0 0 1-.034.04c-.062 0-.14 0-.232-.002a14.417 14.417 0 0 0-.327-.003c-.105 0-.204-.002-.297-.007a8.874 8.874 0 0 1-.262-.018 14.184 14.184 0 0 1 0 1.327c.06-.003.116-.006.169-.007a7.025 7.025 0 0 1 .373-.008h.242zm-.2-3.437a.152.152 0 0 1-.037.028.081.081 0 0 1-.037.013h-.197a.028.028 0 0 1-.027-.016.03.03 0 0 1 .003-.03l.619-.704a.13.13 0 0 1 .03-.031.07.07 0 0 1 .043-.02h.372a.024.024 0 0 1 .025.021.035.035 0 0 1-.01.036zm6.431 2.366a3.732 3.732 0 0 1-.279-.009 9.89 9.89 0 0 1 .018.678v.744a.048.048 0 0 1-.013.03.043.043 0 0 1-.03.014h-.407a.04.04 0 0 1-.032-.013.05.05 0 0 1-.012-.031v-3.437a.074.074 0 0 1 .014-.046.041.041 0 0 1 .03-.02h1a1.561 1.561 0 0 1 .52.078 1.041 1.041 0 0 1 .363.211.824.824 0 0 1 .21.314 1.066 1.066 0 0 1 .07.388.872.872 0 0 1-.083.378.997.997 0 0 1-.222.302 1.14 1.14 0 0 1-.68.3.614.614 0 0 1 .205.094 2.537 2.537 0 0 1 .238.186c.083.074.168.158.257.252s.177.192.265.297c.137.156.255.29.351.396a.961.961 0 0 0 .222.201.087.087 0 0 1-.034.15h-.45a.15.15 0 0 1-.094-.032.801.801 0 0 1-.128-.149c-.107-.13-.22-.27-.338-.418q-.177-.224-.345-.415a2.648 2.648 0 0 0-.327-.317.482.482 0 0 0-.289-.126zm.23-1.709c-.17 0-.337-.004-.504-.013l.007.17.005.206c.002.07.002.14.002.208v.18q0 .31-.014.613a4.482 4.482 0 0 1 .362-.016.902.902 0 0 0 .643-.194.705.705 0 0 0 .202-.53.611.611 0 0 0-.173-.455.734.734 0 0 0-.53-.168zm4.827 2.78c.157 0 .318-.002.484-.005.165-.003.32-.006.468-.006.023 0 .034.016.034.047l-.04.31a.04.04 0 0 1-.034.041h-2.133a.037.037 0 0 1-.031-.015.048.048 0 0 1-.014-.03v-3.453a.042.042 0 0 1 .045-.05h2.06a.045.045 0 0 1 .04.046l.033.311a.034.034 0 0 1-.034.04c-.076 0-.16 0-.253-.002a13.323 13.323 0 0 0-.286-.003c-.098 0-.194 0-.285-.003l-.245-.002-.328-.002a4.093 4.093 0 0 1-.265-.013c.006.098.011.195.012.292l.002.276c0 .192-.005.384-.014.578a8.035 8.035 0 0 1 .569-.02 20.985 20.985 0 0 0 .549-.005c.022 0 .034.015.034.046v.3a.033.033 0 0 1-.034.04c-.062 0-.14 0-.233-.002a14.315 14.315 0 0 0-.326-.003 5.63 5.63 0 0 1-.298-.007 9.06 9.06 0 0 1-.261-.018 15.623 15.623 0 0 1 0 1.327c.059-.003.115-.006.17-.007a6.886 6.886 0 0 1 .371-.008h.243zm3.836-.97a5.77 5.77 0 0 1-.476-.015c.007.1.012.21.013.326.002.118.002.235.002.353v.648a.045.045 0 0 1-.015.03.042.042 0 0 1-.029.015h-.406a.041.041 0 0 1-.033-.014.054.054 0 0 1-.012-.03v-3.438a.071.071 0 0 1 .015-.045.039.039 0 0 1 .03-.02h.964a1.51 1.51 0 0 1 .552.09 1.068 1.068 0 0 1 .384.241.965.965 0 0 1 .223.352 1.222 1.222 0 0 1 .073.422 1.157 1.157 0 0 1-.081.445.897.897 0 0 1-.242.341 1.11 1.11 0 0 1-.403.221 1.794 1.794 0 0 1-.559.078zm-.035-.377a.879.879 0 0 0 .596-.173.674.674 0 0 0 .2-.54.986.986 0 0 0-.04-.283.58.58 0 0 0-.125-.23.593.593 0 0 0-.223-.15.905.905 0 0 0-.334-.056L79 25.21a5.572 5.572 0 0 1-.258-.012c.004.046.006.1.008.16l.005.188c.002.066.002.13.002.194v.355c0 .064 0 .132-.002.201 0 .068-.004.133-.005.195a3.34 3.34 0 0 1-.008.164c.073-.007.148-.01.227-.01h.215zm3.273-1.764a.042.042 0 0 1 .044-.05h.412a.043.043 0 0 1 .03.015.048.048 0 0 1 .014.035v2.222a.858.858 0 0 0 .248.66.958.958 0 0 0 .688.234 1.051 1.051 0 0 0 .709-.214.816.816 0 0 0 .248-.655V24.88a.041.041 0 0 1 .045-.05h.396a.043.043 0 0 1 .03.015.048.048 0 0 1 .014.035v2.302a1.255 1.255 0 0 1-.105.52 1.118 1.118 0 0 1-.295.398 1.361 1.361 0 0 1-.455.253 1.831 1.831 0 0 1-.591.09 1.787 1.787 0 0 1-.584-.09 1.325 1.325 0 0 1-.454-.256 1.128 1.128 0 0 1-.29-.403 1.305 1.305 0 0 1-.104-.528V24.88zm6.342 3.121a.587.587 0 0 0 .7-.623.759.759 0 0 0-.051-.284.557.557 0 0 0-.157-.218.73.73 0 0 0-.275-.141 1.426 1.426 0 0 0-.404-.05c-.095 0-.193 0-.293-.002a4.536 4.536 0 0 1-.286-.014 15.907 15.907 0 0 1 0 1.347c.125-.006.252-.01.383-.012l.383-.003zm-1.201.377a.043.043 0 0 1-.033-.014.048.048 0 0 1-.013-.03v-3.453a.043.043 0 0 1 .046-.05h1.047a1.671 1.671 0 0 1 .553.077 1.033 1.033 0 0 1 .348.199.68.68 0 0 1 .182.27.913.913 0 0 1 .052.288.692.692 0 0 1-.062.29.814.814 0 0 1-.166.235.874.874 0 0 1-.237.17 1.258 1.258 0 0 1-.282.103 1.213 1.213 0 0 1 .358.088 1.087 1.087 0 0 1 .317.199.944.944 0 0 1 .223.302.892.892 0 0 1 .083.387.852.852 0 0 1-.302.683 1.256 1.256 0 0 1-.84.256h-1.274zm.881-2.04a.905.905 0 0 0 .598-.16.578.578 0 0 0 .02-.834.8.8 0 0 0-.524-.142h-.27c-.095 0-.185-.003-.27-.01a12.515 12.515 0 0 1 0 1.162c.071-.007.146-.012.221-.014a9.99 9.99 0 0 1 .225-.002zm4.067 1.663c.146-.007.294-.012.44-.017q.222-.008.438-.008c.153 0 .305 0 .454-.003l.443-.001a.034.034 0 0 1 .038.04l-.033.321a.037.037 0 0 1-.04.045h-2.171a.04.04 0 0 1-.032-.014.049.049 0 0 1-.014-.03v-3.453a.043.043 0 0 1 .046-.05h.406a.042.042 0 0 1 .03.015.051.051 0 0 1 .014.035v2.392c0 .117-.001.235-.006.354-.001.119-.007.244-.013.374zm4.125.332a.055.055 0 0 1-.014.03.047.047 0 0 1-.03.015h-.407a.045.045 0 0 1-.033-.014.059.059 0 0 1-.012-.031v-3.453a.042.042 0 0 1 .045-.05h.407a.044.044 0 0 1 .03.016.052.052 0 0 1 .014.034v3.453zm2.757 0a.055.055 0 0 1-.014.03.048.048 0 0 1-.03.015h-.407a.045.045 0 0 1-.032-.014.06.06 0 0 1-.012-.031v-3.453a.042.042 0 0 1 .044-.05h.407a.045.045 0 0 1 .03.016.053.053 0 0 1 .014.034v.825c0 .108 0 .213-.002.319a8.49 8.49 0 0 1-.012.304h.078a.6.6 0 0 0 .262-.191q.194-.191.474-.508c.105-.117.215-.243.333-.377q.176-.2.358-.381a.114.114 0 0 1 .083-.04h.49a.04.04 0 0 1 .04.05.056.056 0 0 1-.03.055.968.968 0 0 0-.146.113c-.064.055-.134.124-.216.203-.082.081-.172.172-.27.275l-.31.324c-.133.137-.258.262-.374.374a1.804 1.804 0 0 1-.258.219.364.364 0 0 1 .11.078q.071.062.168.158c.063.064.134.137.213.221l.25.265c.108.118.216.235.329.353a12.227 12.227 0 0 0 .588.578.988.988 0 0 0 .177.135.075.075 0 0 1 .04.071c0 .05-.015.075-.04.075h-.52a.123.123 0 0 1-.051-.013.236.236 0 0 1-.048-.027 10.09 10.09 0 0 1-.433-.443q-.223-.241-.424-.481a29.34 29.34 0 0 0-.26-.3 4.67 4.67 0 0 0-.226-.238 1.498 1.498 0 0 0-.182-.156.241.241 0 0 0-.122-.055h-.089a9.908 9.908 0 0 1 .02.693v.975zm5.666 0a.048.048 0 0 1-.015.03.047.047 0 0 1-.03.015h-.407a.045.045 0 0 1-.032-.014.057.057 0 0 1-.01-.031v-1.502l-1.404-1.92a.07.07 0 0 1-.02-.055.038.038 0 0 1 .044-.025h.456a.09.09 0 0 1 .083.055l.8 1.09c.059.08.113.163.164.246a2.351 2.351 0 0 1 .136.261 3.43 3.43 0 0 1 .308-.502l.804-1.095a.125.125 0 0 1 .049-.045.13.13 0 0 1 .054-.01h.411a.038.038 0 0 1 .045.025.068.068 0 0 1-.02.055l-1.416 1.92v1.502z" fill="#68737a" fill-rule="evenodd"/></svg>